<?xml version="1.0" encoding="utf-8"?>
<!-- Generator: Adobe Illustrator 21.0.0, SVG Export Plug-In . SVG Version: 6.00 Build 0)  -->
<svg version="1.1" id="Layer_1" xmlns="http://www.w3.org/2000/svg" xmlns:xlink="http://www.w3.org/1999/xlink" x="0px" y="0px"
	 viewBox="0 0 317.8 225.1" style="enable-background:new 0 0 317.8 225.1;" xml:space="preserve">
<style type="text/css">
	.st0{fill:#3CC0CD;}
	.st1{fill:#FFFFFF;stroke:#000000;stroke-width:2;stroke-miterlimit:10;}
</style>
<g>
	<path d="M96.8,168.5l0-0.3c0-1.8-1.5-3.4-3.4-3.3l-48.1,0.4c-1.8,0-3.4,1.5-3.3,3.4l0.1,15.5c0,1.8,1.5,3.4,3.4,3.3l48.1-0.4
		c1.8,0,3.4-1.5,3.3-3.4l0-0.3c0-0.1,0.1-0.4,0.4-0.4l1.5,0c0.1,0,0.4,0.1,0.4,0.4l0,0.3c0,1.8,1.5,3.4,3.4,3.3l2.1,0
		c1.8,0,3.4-1.5,3.3-3.4l0-4.2l42.5-0.4c0.9,0.9,2.1,1.4,3.5,1.4l7.3-0.1c0.9,0,1.5-0.6,1.5-1.5l-0.1-7c0-0.9-0.6-1.5-1.5-1.5
		l-7.3,0.1c-1.3,0-2.6,0.6-3.5,1.5l-42.9,0.4l0-4.2c0-1.8-1.5-3.4-3.4-3.3l-2.1,0c-1.8,0-3.4,1.5-3.3,3.4l0,0.3
		c0,0.1-0.1,0.4-0.4,0.4l-1.5,0C97,168.8,96.8,168.6,96.8,168.5z M159.7,173.4l0,4l-5.9,0c-1,0-2.1-0.9-2.1-2c0-1,0.9-2.1,2-2.1
		l5.9,0L159.7,173.4z M149,174.9c0,0.1,0,0.3,0,0.6c0,0.1,0,0.3,0,0.6l-41.5,0.4l0-1.2L149,174.9z M101.9,168.4l0-0.3
		c0-0.1,0.1-0.4,0.4-0.4l2.1,0c0.1,0,0.4,0.1,0.4,0.4l0.1,15.5c0,0.1-0.1,0.4-0.4,0.4l-2.1,0c-0.1,0-0.4-0.1-0.4-0.4l0-0.3
		c0-1.8-1.5-3.4-3.4-3.3l-1.5,0c-1.8,0-3.4,1.5-3.3,3.4l0,0.3c0,0.1-0.1,0.4-0.4,0.4l-48.1,0.4c-0.1,0-0.4-0.1-0.4-0.4l-0.1-15.5
		c0-0.1,0.1-0.4,0.4-0.4l48.2-0.4c0.1,0,0.4,0.1,0.4,0.4l0,0.3c0,1.8,1.5,3.4,3.4,3.3l1.5,0C100.5,171.7,102,170.2,101.9,168.4z"/>
	<path d="M49.9,179.6c0,0.9,0.6,1.5,1.5,1.5l36-0.3c0.9,0,1.5-0.6,1.5-1.5c0-0.9-0.6-1.5-1.5-1.5l-36,0.3
		C50.4,178.1,49.9,178.7,49.9,179.6z"/>
	<path d="M87.3,171.3l-36,0.3c-0.9,0-1.5,0.6-1.5,1.5s0.6,1.5,1.5,1.5l36-0.3c0.9,0,1.5-0.6,1.5-1.5
		C88.8,171.9,88.1,171.3,87.3,171.3z"/>
	<path d="M163.4,136.4c0.3-0.4,0.3-1,0-1.5c-3.4-6.6-10.2-10.6-17.5-10.5c-9.1,0.1-16.7,6.3-18.9,14.7l-25.5-1.2l0-0.9
		c0-0.9-0.6-1.5-1.5-1.5L51,135.9c-5,0-8.9,4-8.9,9s4,8.9,9,8.9l48.9-0.4c0.9,0,1.5-0.6,1.5-1.5l0-0.9l25.5-1.7
		c2.4,8.3,10.1,14.4,19.2,14.3c7.3-0.1,14-4.2,17.3-10.8c0.3-0.4,0.1-1,0-1.5c-0.3-0.4-0.7-0.7-1.3-0.7l-14.7,0.1
		c-2.1,0-3.8-1.6-3.8-3.8l-0.1-6.3c0-2.1,1.7-3.8,3.8-3.8l14.7-0.1C162.6,137,163.1,136.8,163.4,136.4z M50.9,151
		c-3.4,0-6-2.7-6.1-6c0-3.4,2.6-6,6-6.1l47.6-0.4l0.1,12L50.9,151z M101.5,148.2l-0.1-7.2l24.9,1.1c-0.1,0.7-0.1,1.5-0.1,2.2
		s0,1.5,0.2,2.2L101.5,148.2z M140.7,141l0.1,6.3c0,3.7,3,6.7,6.8,6.7l12-0.1c-3,4.3-8,7-13.6,7c-9.1,0.1-16.8-7.3-16.8-16.6
		c-0.1-9.2,7.3-16.8,16.6-16.8c5.4,0,10.4,2.5,13.7,6.8l-12,0.1C143.7,134.2,140.7,137.3,140.7,141z"/>
	<ellipse transform="matrix(1 -8.478047e-03 8.478047e-03 1 -1.2271 0.4492)" cx="52.4" cy="145" rx="2.2" ry="2.2"/>
</g>
<g>
	<g>
		<path class="st0" d="M265.9,42.5l-28.7-16.6c-5-2.9-11.1-2.9-16.1,0l-28.7,16.6c-5,2.9-8.1,8.2-8.1,13.9v33.1
			c0,5.7,3.1,11,8.1,13.9l28.7,16.6c5,2.9,11.1,2.9,16.1,0l28.7-16.6c5-2.9,8.1-8.2,8.1-13.9V56.4C273.9,50.6,270.9,45.3,265.9,42.5
			z"/>
	</g>
</g>
<path class="st1" d="M227.6,46.8c4.7-17.8,22.9-28.4,40.5-23.7c17.6,4.7,28.2,22.9,23.7,40.3c-2.1,8.3-7.5,15.2-14.2,19.4l8.7,13.4
	l-34.9-9.1C233.4,82.5,223,64.4,227.6,46.8z"/>
<path class="st1" d="M236.2,87.7l-21.4,5.6l5.3-8.2c-4.1-2.6-7.4-6.8-8.7-11.9c-2.8-10.7,3.7-21.8,14.5-24.7
	c10.8-2.9,21.9,3.6,24.8,14.5C253.5,73.8,247.1,84.9,236.2,87.7z"/>
<path d="M180.5,79.3H77.3l-9.1-11.3c-2.6-3.2-6.8-4.9-10.9-4.9h-33c-6.8,0-12.1,5.5-12.1,12.1v121.2c0,6.8,5.5,12.1,12.1,12.1h156.1
	c6.8,0,12.1-5.5,12.1-12.1V91.4C192.6,84.6,187.1,79.3,180.5,79.3z M22.2,69.2h36.8c1.9,0,3.8,0.8,4.9,2.1l11.5,14h106.8
	c2.1,0,4,1.9,4,4v13.3H18.1V73.1C18.3,71,20.1,69.2,22.2,69.2z M182.5,202.3H22.2c-2.1,0-4-1.9-4-4V109h168.2v89.5
	C186.5,200.4,184.6,202.3,182.5,202.3z"/>
</svg>
