<?xml version="1.0" encoding="utf-8"?>
<!-- Generator: Adobe Illustrator 21.0.0, SVG Export Plug-In . SVG Version: 6.00 Build 0)  -->
<svg version="1.1" id="Layer_1" xmlns="http://www.w3.org/2000/svg" xmlns:xlink="http://www.w3.org/1999/xlink" x="0px" y="0px"
	 viewBox="0 0 90.6 97.9" style="enable-background:new 0 0 90.6 97.9;" xml:space="preserve">
<style type="text/css">
	.st0{fill:#4075A1;}
	.st1{fill:#3CC0CD;}
</style>
<g>
	<g>
		<path class="st0" d="M80.8,19.3L53.3,3.4c-4.8-2.8-10.7-2.8-15.4,0L10.3,19.3c-4.8,2.8-7.7,7.9-7.7,13.4v31.8
			c0,5.5,3,10.6,7.7,13.4l27.6,15.9c4.8,2.8,10.7,2.8,15.4,0l27.6-15.9c4.8-2.8,7.7-7.9,7.7-13.4V32.7
			C88.6,27.2,85.6,22.1,80.8,19.3z M77.3,58c0,5.5-2.9,10.6-7.7,13.4l-16.3,9.4c-4.8,2.8-10.7,2.8-15.4,0l-16.3-9.4
			c-4.8-2.8-7.7-7.9-7.7-13.4V39.2c0-5.5,3-10.6,7.7-13.4l16.3-9.4c4.8-2.8,10.7-2.8,15.5,0l16.3,9.4c4.8,2.8,7.7,7.9,7.7,13.4V58z"
			/>
	</g>
</g>
<circle class="st1" cx="46.9" cy="30.5" r="9.4"/>
</svg>
