<?xml version="1.0" encoding="utf-8"?>
<!-- Generator: Adobe Illustrator 21.0.0, SVG Export Plug-In . SVG Version: 6.00 Build 0)  -->
<svg version="1.1" id="Layer_1" xmlns="http://www.w3.org/2000/svg" xmlns:xlink="http://www.w3.org/1999/xlink" x="0px" y="0px"
	 viewBox="0 0 274.4 290.2" style="enable-background:new 0 0 274.4 290.2;" xml:space="preserve">
<style type="text/css">
	.st0{fill:#FFFFFF;stroke:#000000;stroke-width:4;stroke-miterlimit:10;}
	.st1{fill:none;stroke:#000000;stroke-width:4;stroke-miterlimit:10;}
	.st2{stroke:#000000;stroke-width:4;stroke-miterlimit:10;}
	.st3{fill:#3CC0CD;}
	.st4{fill:none;stroke:#000000;stroke-width:2;stroke-miterlimit:10;}
</style>
<path class="st0" d="M236.4,275.1H85.9c-6.6,0-12-5.4-12-12v-87c0-6.6,5.4-12,12-12h150.5c6.6,0,12,5.4,12,12v87
	C248.4,269.7,243,275.1,236.4,275.1z"/>
<line class="st1" x1="75" y1="201.6" x2="247.3" y2="201.8"/>
<path class="st2" d="M169.1,141h-15.6c-10.3,0-18.7,8.4-18.7,18.7v1.5h53.1v-1.5C187.8,149.4,179.5,141,169.1,141z"/>
<rect x="104.4" y="200.8" width="8.2" height="75.1"/>
<rect x="210.8" y="200.8" width="8.2" height="75.1"/>
<g>
	<g>
		<path class="st3" d="M85.2,67.1L70,58.3c-2.6-1.5-5.9-1.5-8.5,0l-15.2,8.8c-2.6,1.5-4.3,4.3-4.3,7.4v17.6c0,3,1.6,5.9,4.3,7.4
			l15.2,8.8c2.6,1.5,5.9,1.5,8.5,0l15.2-8.8c2.6-1.5,4.3-4.4,4.3-7.4V74.5C89.5,71.5,87.9,68.7,85.2,67.1z"/>
	</g>
</g>
<rect x="102.5" y="165.5" width="11" height="35.3"/>
<rect x="209.7" y="165.5" width="11" height="35.3"/>
<g>
	<line class="st4" x1="26.9" y1="87.1" x2="76.3" y2="87.1"/>
	<line class="st4" x1="51.4" y1="112.6" x2="51.4" y2="63.2"/>
	<line class="st4" x1="68.9" y1="105.3" x2="34" y2="70.4"/>
	<line class="st4" x1="34" y1="105.3" x2="68.9" y2="70.4"/>
</g>
<g>
	<line class="st4" x1="84.1" y1="42.1" x2="133.5" y2="42.1"/>
	<line class="st4" x1="108.7" y1="67.6" x2="108.7" y2="18.2"/>
	<line class="st4" x1="126.2" y1="60.3" x2="91.3" y2="25.4"/>
	<line class="st4" x1="91.3" y1="60.3" x2="126.2" y2="25.4"/>
</g>
<g>
	<line class="st4" x1="87.1" y1="113.1" x2="136.5" y2="113.1"/>
	<line class="st4" x1="111.7" y1="138.6" x2="111.7" y2="89.1"/>
	<line class="st4" x1="129.1" y1="131.3" x2="94.2" y2="96.4"/>
	<line class="st4" x1="94.2" y1="131.3" x2="129.1" y2="96.4"/>
</g>
<g>
	<line class="st4" x1="139.1" y1="78.4" x2="160.7" y2="78.4"/>
	<line class="st4" x1="149.9" y1="89.6" x2="149.9" y2="68"/>
	<line class="st4" x1="157.5" y1="86.4" x2="142.2" y2="71.1"/>
	<line class="st4" x1="142.2" y1="86.4" x2="157.5" y2="71.1"/>
</g>
<g>
	<line class="st4" x1="25.2" y1="38.6" x2="46.8" y2="38.6"/>
	<line class="st4" x1="36" y1="49.7" x2="36" y2="28.1"/>
	<line class="st4" x1="43.6" y1="46.6" x2="28.3" y2="31.3"/>
	<line class="st4" x1="28.3" y1="46.6" x2="43.6" y2="31.3"/>
</g>
<g>
	<line class="st4" x1="71.4" y1="147.2" x2="93" y2="147.2"/>
	<line class="st4" x1="82.1" y1="158.4" x2="82.1" y2="136.7"/>
	<line class="st4" x1="89.8" y1="155.2" x2="74.5" y2="139.9"/>
	<line class="st4" x1="74.5" y1="155.2" x2="89.8" y2="139.9"/>
</g>
<g>
	<g>
		<path class="st3" d="M78.2,123.5l-7.8-4.5c-1.3-0.8-3-0.8-4.3,0l-7.8,4.5c-1.3,0.8-2.2,2.2-2.2,3.8v9c0,1.6,0.8,3,2.2,3.8l7.8,4.5
			c1.3,0.8,3,0.8,4.3,0l7.8-4.5c1.3-0.8,2.2-2.2,2.2-3.8v-9C80.4,125.7,79.6,124.3,78.2,123.5z"/>
	</g>
</g>
<g>
	<line class="st4" x1="41.6" y1="134.4" x2="63.2" y2="134.4"/>
	<line class="st4" x1="52.3" y1="145.5" x2="52.3" y2="123.9"/>
	<line class="st4" x1="60" y1="142.4" x2="44.7" y2="127.1"/>
	<line class="st4" x1="44.7" y1="142.4" x2="60" y2="127.1"/>
</g>
<rect x="150.9" y="200.8" width="21.1" height="16.1"/>
</svg>
