<?xml version="1.0" encoding="utf-8"?>
<!-- Generator: Adobe Illustrator 21.0.0, SVG Export Plug-In . SVG Version: 6.00 Build 0)  -->
<svg version="1.1" id="Layer_1" xmlns="http://www.w3.org/2000/svg" xmlns:xlink="http://www.w3.org/1999/xlink" x="0px" y="0px"
	 viewBox="0 0 333.6 262.6" style="enable-background:new 0 0 333.6 262.6;" xml:space="preserve">
<style type="text/css">
	.st0{fill:#3CC0CD;}
	.st1{fill:#FFFFFF;stroke:#000000;stroke-width:0.75;stroke-miterlimit:10;}
	.st2{fill:#FFFFFF;}
	.st3{fill:none;}
	.st4{fill:#FFFFFF;stroke:#000000;stroke-miterlimit:10;}
	.st5{fill:#FFFFFF;stroke:#000000;stroke-width:0.5;stroke-miterlimit:10;}
</style>
<g>
	<g>
		<path class="st0" d="M140.1,67.2l-28.7-16.6c-5-2.9-11.1-2.9-16.1,0L66.6,67.2c-5,2.9-8.1,8.2-8.1,13.9v33.1
			c0,5.7,3.1,11,8.1,13.9l28.7,16.6c5,2.9,11.1,2.9,16.1,0l28.7-16.6c5-2.9,8.1-8.2,8.1-13.9V81.2C148.2,75.4,145.1,70.1,140.1,67.2
			z"/>
	</g>
</g>
<path d="M96.5,128.9c-2,0-4,0.3-5.9,0.8c-0.8-11.5-10.2-20.5-21.7-20.5c-10.3,0-19.1,7.3-21.2,17.3c-5.3-0.6-10.6,1.9-13.6,6.3
	c-1.2-0.2-2.3-0.3-3.5-0.3c-11.1,0-20.1,8.5-20.1,19c0,10.5,9,19,20.1,19c0.5,0,1.1,0,1.6-0.1c0.3,0,0.6,0.1,0.9,0.1h65.9
	c0.8,0,1.5-0.2,2.2-0.5c10-2.1,17.3-10.6,17.3-20.3C118.4,138.2,108.6,128.9,96.5,128.9z M100.3,166.6l-0.2,0l-0.2,0.1
	c-0.3,0.1-0.6,0.2-0.9,0.2H33c-0.1,0-0.3,0-0.4,0l-0.3-0.1l-0.3,0c-0.5,0-1,0.1-1.6,0.1c-9.1,0-16.6-7-16.6-15.5S21.4,136,30.6,136
	c1.3,0,2.7,0.2,4,0.5l1.3,0.3l0.6-1.2c2-3.5,5.6-5.7,9.6-5.7c0.9,0,1.8,0.1,2.6,0.3l1.9,0.5l0.3-1.9c1.2-9.2,9-16.1,18.1-16.1
	c10.1,0,18.3,8.3,18.3,18.6c0,0.3,0,0.5,0,0.8l-0.1,2.6l2.5-0.9c2.2-0.9,4.6-1.3,7-1.3c10.2,0,18.5,7.8,18.5,17.3
	C115,157.8,108.8,165,100.3,166.6z"/>
<g>
	<path class="st1" d="M63.5,157.4l-5.4-3.3c-0.3-0.2-0.7-0.2-1,0l-5.4,3.3c-0.4,0.3-0.7,0.7-0.7,1.2c0,0.5,0.3,1,0.7,1.2
		c0.5,0.3,1,0.2,1.4,0l2.6-1.6c0,0,0,0,0.1,0c0,0,0,0,0.1,0c0,0,0.1,0.1,0.1,0.1v15.7c0,0.9,0.7,1.6,1.6,1.6c0.9,0,1.6-0.7,1.6-1.6
		v-15.7c0,0,0-0.1,0.1-0.1c0,0,0.1,0,0.1,0l2.6,1.6c0.5,0.3,1,0.3,1.4,0.2c0.4-0.2,0.7-0.6,0.8-1.1C64.3,158.4,64,157.8,63.5,157.4z
		"/>
	<path class="st1" d="M63.6,157.2l-5.4-3.3c-0.4-0.2-0.9-0.2-1.3,0l-5.4,3.3c-0.5,0.3-0.8,0.8-0.8,1.4c0,0.6,0.3,1.2,0.9,1.5
		c0.5,0.3,1.2,0.3,1.7,0l2.4-1.5v15.5c0,1,0.8,1.9,1.9,1.9c1,0,1.9-0.8,1.9-1.9v-15.5l2.4,1.5c0.5,0.3,1.1,0.4,1.6,0.2
		c0.5-0.2,0.8-0.6,0.9-1.2C64.5,158.3,64.2,157.6,63.6,157.2z M64.2,158.9c-0.1,0.5-0.4,0.9-0.8,1.1c-0.4,0.2-0.9,0.1-1.4-0.2
		l-2.6-1.6c0,0-0.1,0-0.1,0c0,0-0.1,0.1-0.1,0.1v15.7c0,0.9-0.7,1.6-1.6,1.6c-0.9,0-1.6-0.7-1.6-1.6v-15.7c0,0,0-0.1-0.1-0.1
		c0,0,0,0-0.1,0c0,0,0,0-0.1,0l-2.6,1.6c-0.4,0.3-1,0.3-1.4,0c-0.5-0.3-0.7-0.7-0.7-1.2c0-0.5,0.3-1,0.7-1.2l5.4-3.3
		c0.3-0.2,0.7-0.2,1,0l5.4,3.3C64,157.8,64.3,158.4,64.2,158.9z"/>
</g>
<g>
	<path class="st1" d="M65.7,181.3l5.4,3.3c0.3,0.2,0.7,0.2,1,0l5.4-3.3c0.4-0.3,0.7-0.7,0.7-1.2c0-0.5-0.3-1-0.7-1.2
		c-0.5-0.3-1-0.2-1.4,0l-2.6,1.6c0,0,0,0-0.1,0c0,0,0,0-0.1,0c0,0-0.1-0.1-0.1-0.1l0-15.7c0-0.9-0.7-1.6-1.6-1.6
		c-0.9,0-1.6,0.7-1.6,1.6l0,15.7c0,0,0,0.1-0.1,0.1c0,0-0.1,0-0.1,0l-2.6-1.6c-0.5-0.3-1-0.3-1.4-0.2c-0.4,0.2-0.7,0.6-0.8,1.1
		C64.9,180.4,65.2,181,65.7,181.3z"/>
	<path class="st1" d="M65.6,181.5l5.4,3.3c0.4,0.2,0.9,0.2,1.3,0l5.4-3.3c0.5-0.3,0.8-0.8,0.8-1.4c0-0.6-0.3-1.2-0.9-1.5
		c-0.5-0.3-1.2-0.3-1.7,0l-2.4,1.5l0-15.5c0-1-0.8-1.9-1.9-1.9s-1.9,0.8-1.9,1.9l0,15.5l-2.4-1.5c-0.5-0.3-1.1-0.4-1.6-0.2
		c-0.5,0.2-0.8,0.6-0.9,1.2C64.7,180.4,65,181.1,65.6,181.5z M65,179.8c0.1-0.5,0.4-0.9,0.8-1.1c0.4-0.2,0.9-0.1,1.4,0.2l2.6,1.6
		c0,0,0.1,0,0.1,0c0,0,0.1-0.1,0.1-0.1l0-15.7c0-0.9,0.7-1.6,1.6-1.6c0.9,0,1.6,0.7,1.6,1.6l0,15.7c0,0,0,0.1,0.1,0.1c0,0,0,0,0.1,0
		c0,0,0,0,0.1,0l2.6-1.6c0.4-0.3,1-0.3,1.4,0c0.5,0.3,0.7,0.7,0.7,1.2c0,0.5-0.3,1-0.7,1.2l-5.4,3.3c-0.3,0.2-0.7,0.2-1,0l-5.4-3.3
		C65.2,181,64.9,180.4,65,179.8z"/>
</g>
<rect x="94.4" y="79.1" width="19.1" height="5.1"/>
<circle class="st2" cx="89.9" cy="81.5" r="7.5"/>
<circle class="st2" cx="117.9" cy="81.5" r="7.5"/>
<ellipse transform="matrix(0.5691 -0.8223 0.8223 0.5691 -28.3046 109.2439)" cx="90.1" cy="81.6" rx="3" ry="3"/>
<ellipse transform="matrix(0.5691 -0.8223 0.8223 0.5691 -16.2401 132.2669)" cx="118.1" cy="81.6" rx="3" ry="3"/>
<circle cx="63.1" cy="19.7" r="6"/>
<rect x="94.9" y="115.6" class="st2" width="18.9" height="3.1"/>
<circle cx="144.1" cy="19.7" r="6"/>
<polyline class="st3" points="62.9,20 75.2,69.9 95.4,58.8 74.7,70.8 "/>
<line class="st3" x1="62.6" y1="19.7" x2="93.8" y2="51.5"/>
<polygon points="63,20.9 78.5,60.5 88,54.8 "/>
<g>
	<path d="M294.8,209H150.5c-1.4,0-2.6-1.2-2.6-2.6v-81.9c0-1.4,1.1-2.6,2.6-2.6h144.3c1.4,0,2.6,1.2,2.6,2.6v81.9
		C297.3,207.9,296.2,209,294.8,209z M153,203.9h139.2v-76.7H153V203.9z"/>
</g>
<g>
	<path d="M294,219.9H151.2c-7.3,0-13.3-6-13.3-13.4c0-1.4,1.1-2.6,2.6-2.6h164.3c1.4,0,2.6,1.2,2.6,2.6
		C307.3,213.9,301.4,219.9,294,219.9z M143.4,209.1c1.1,3.3,4.2,5.7,7.8,5.7H294c3.6,0,6.7-2.4,7.8-5.7H143.4z"/>
</g>
<polygon points="145,21.4 118.4,54.7 128.1,60.1 "/>
<g>
	<path d="M225,135.2h-4.7c-1.4,0-2.6-1.2-2.6-2.6c0-1.4,1.1-2.6,2.6-2.6h4.7c1.4,0,2.6,1.2,2.6,2.6
		C227.5,134.1,226.4,135.2,225,135.2z"/>
</g>
<g>
	<path d="M164.7,140.7v65.7h115.8v-65.7H164.7z M194.8,198.5h-7.5v-20.3h7.5V198.5z M207.4,167.7v30.8h-7.5v-22.9v-15.7h7.5V167.7z
		 M220,198.5h-7.5v-28.2h7.5L220,198.5L220,198.5z M232.7,175.6v22.9h-7.5v-30.8v-14.9h7.5V175.6z M245.3,198.5h-7.5v-20.3h7.5
		V198.5z M257.9,198.5h-7.5v-22.9v-22.9h7.5V198.5z"/>
</g>
<g>
	<path d="M280.5,209H164.7c-1.4,0-2.6-1.2-2.6-2.6v-65.7c0-1.4,1.1-2.6,2.6-2.6h115.8c1.4,0,2.6,1.2,2.6,2.6v65.7
		C283.1,207.9,281.9,209,280.5,209z M167.3,203.9H278v-60.5H167.3L167.3,203.9z"/>
</g>
<rect x="187.1" y="178.1" class="st4" width="7.8" height="20.3"/>
<rect x="162.4" y="138.1" class="st4" width="120.6" height="65.9"/>
<g>
	<rect x="188.1" y="178.1" class="st4" width="7.8" height="20.3"/>
	<rect x="200.1" y="159.9" class="st4" width="7.8" height="38.5"/>
	<rect x="212.1" y="170.7" class="st4" width="7.8" height="27.8"/>
	<rect x="225.1" y="153" class="st4" width="7.8" height="45.5"/>
	<rect x="237.1" y="176.9" class="st4" width="7.8" height="21.5"/>
	<rect x="250.1" y="152.9" class="st4" width="7.8" height="45.5"/>
</g>
<g transform="translate(0,-1020.3622)">
	<path d="M319,1107.5c-1.7,0-3.1,1.4-3.1,3.1s1.4,3.1,3.1,3.1c1.7,0,3.1-1.4,3.1-3.1S320.6,1107.5,319,1107.5z M300.5,1109.6
		c-1.7,0-3.1,1.4-3.1,3.1c0,1.7,1.4,3.1,3.1,3.1c1.7,0,3.1-1.4,3.1-3.1C303.6,1110.9,302.2,1109.6,300.5,1109.6z M319,1109.6
		c0.6,0,1,0.4,1,1c0,0.6-0.4,1-1,1c-0.6,0-1-0.4-1-1C317.9,1110,318.4,1109.6,319,1109.6z M300.5,1111.6c0.6,0,1,0.4,1,1
		c0,0.6-0.4,1-1,1c-0.6,0-1-0.4-1-1C299.4,1112.1,299.9,1111.6,300.5,1111.6z M310.7,1111.6c-1.7,0-3.1,1.4-3.1,3.1s1.4,3.1,3.1,3.1
		s3.1-1.4,3.1-3.1S312.4,1111.6,310.7,1111.6z M310.7,1113.7c0.6,0,1,0.4,1,1c0,0.6-0.4,1-1,1s-1-0.4-1-1
		C309.7,1114.1,310.2,1113.7,310.7,1113.7z M293.3,1120.9c-0.6,0-1,0.5-1,1c0,0.3,0.1,0.5,0.3,0.7l12.9,13.9v12.7
		c0,0.3,0.1,0.6,0.4,0.8l4.2,3.4c0.4,0.4,1.1,0.3,1.4-0.1c0.1-0.2,0.2-0.4,0.2-0.6l0.3-16.2l12.8-13.9c0.4-0.4,0.4-1.1-0.1-1.5
		c-0.2-0.2-0.4-0.3-0.7-0.3H293.3z M295.6,1122.9h26.1l-11.5,12.5c-0.2,0.2-0.3,0.4-0.3,0.7l-0.3,14.5l-2.2-1.8v-12.7
		c0-0.3-0.1-0.5-0.3-0.7L295.6,1122.9z M308.7,1155.8c-1.7,0-3.1,1.4-3.1,3.1s1.4,3.1,3.1,3.1c1.7,0,3.1-1.4,3.1-3.1
		S310.4,1155.8,308.7,1155.8z M308.7,1157.8c0.6,0,1,0.4,1,1c0,0.6-0.4,1-1,1s-1-0.4-1-1C307.7,1158.3,308.1,1157.8,308.7,1157.8z"
		/>
</g>
<path d="M98.3,240.5c0,2.4,2,4.4,4.4,4.4h27.1c2.4,0,4.4-2,4.4-4.4v-55.4h-36V240.5z M116.3,235.9c1.7,0,3.2,1.4,3.2,3.2
	c0,1.7-1.4,3.2-3.2,3.2c-1.7,0-3.2-1.4-3.2-3.2C113.2,237.3,114.6,235.9,116.3,235.9z M129.9,174.7h-27.1c-2.4,0-4.4,2-4.4,4.4v4.5
	h36v-4.5C134.3,176.7,132.3,174.7,129.9,174.7z M108.6,180.2c-0.6,0-1-0.5-1-1c0-0.6,0.5-1,1-1s1,0.5,1,1
	C109.6,179.8,109.1,180.2,108.6,180.2z M120.8,180h-8.9c-0.4,0-0.7-0.3-0.7-0.7s0.3-0.7,0.7-0.7h8.9c0.4,0,0.7,0.3,0.7,0.7
	S121.2,180,120.8,180z"/>
<rect x="102.4" y="191.2" class="st2" width="26.9" height="42"/>
<g>
	<rect x="105.5" y="211.4" class="st5" width="2.3" height="5.9"/>
	<rect x="109" y="206.1" class="st5" width="2.3" height="11.3"/>
	<rect x="112.5" y="209.2" class="st5" width="2.3" height="8.1"/>
	<rect x="116.3" y="204" class="st5" width="2.3" height="13.3"/>
	<rect x="119.9" y="211.1" class="st5" width="2.3" height="6.3"/>
	<rect x="123.7" y="204" class="st5" width="2.3" height="13.3"/>
</g>
</svg>
